<?xml version="1.0" encoding="utf-8"?>
<!-- Generator: Adobe Illustrator 22.1.0, SVG Export Plug-In . SVG Version: 6.00 Build 0)  -->
<svg version="1.1" id="Слой_1" xmlns="http://www.w3.org/2000/svg" xmlns:xlink="http://www.w3.org/1999/xlink" x="0px" y="0px"
	 viewBox="0 0 900 200" style="enable-background:new 0 0 900 200;" xml:space="preserve">
<style type="text/css">
	.st0{fill:#6C9AFF;stroke-width:10;}
</style>
<path class="st0" d="M882,113.9c-0.3-0.1-35.8-13.2-104.2-26.6c-63.1-12.3-168-27.5-309.8-29.6c-5.1-0.1-10.5-0.1-17.3-0.2
	c0,0,0,0-0.1,0c0,0,0,0,0,0c-0.2,0-0.5,0-0.7,0c-0.2,0-0.5,0-0.7,0c0,0,0,0,0,0c0,0,0,0-0.1,0c-6.8,0-12.2,0.1-17.3,0.2
	c-141.8,2.1-246.7,17.3-309.8,29.6C53.7,100.7,18.3,113.7,18,113.9c-1.2,0.5-1.9,1.8-1.4,3.1c0.4,1,1.3,1.6,2.2,1.6
	c0.3,0,0.6,0,0.8-0.2C20,118.2,55,105.3,123.1,92c62.9-12.3,167.6-27.4,309-29.5c5.2-0.1,10.8-0.1,17.9-0.2c7.1,0,12.7,0.1,17.9,0.2
	c141.3,2.1,245.9,17.2,308.8,29.5c68.1,13.3,103.3,26.3,103.6,26.4c0.3,0.1,0.6,0.2,0.8,0.2c1,0,1.9-0.6,2.2-1.6
	C883.9,115.7,883.3,114.3,882,113.9z"/>
</svg>
