<?xml version="1.0" encoding="utf-8"?>
<!-- Generator: Adobe Illustrator 22.1.0, SVG Export Plug-In . SVG Version: 6.00 Build 0)  -->
<svg version="1.1" id="Слой_1" xmlns="http://www.w3.org/2000/svg" xmlns:xlink="http://www.w3.org/1999/xlink" x="0px" y="0px"
	 viewBox="0 0 200 200" style="enable-background:new 0 0 200 200;" xml:space="preserve">
<style type="text/css">
	.st0{fill:#00f3f7;}
	.st1{fill:#222;}
</style>
<path class="st0" d="M148.5,68.5c-1.1,0-2.1,0.2-3,0.5c0.1,0,0.3-0.1,0.4-0.2c-2.1-11-11.9-19.3-23.5-19.3H77.6
	c-11.6,0-21.3,8.4-23.5,19.3c0.1,0,0.2,0.1,0.3,0.1c-0.9-0.3-1.9-0.5-2.9-0.5c-5.2,0-9.5,4.3-9.5,9.5v56.5c0,5.2,4.3,9.5,9.5,9.5
	c3.8,0,7.1-2.2,8.6-5.5l0,0c1.2,6.7,13.8,12,20.7,12h38.4c6.9,0,19.5-5.3,20.7-12l0,0c1.5,3.2,4.8,5.5,8.6,5.5
	c5.2,0,9.5-4.3,9.5-9.5V78c0-2.6-1.1-5-2.8-6.7C153.5,69.6,151.1,68.5,148.5,68.5z M138.6,134.3c-0.1-0.1-0.2-0.2-0.3-0.2
	C138.4,134.2,138.5,134.2,138.6,134.3z"/>
<path class="st1" d="M154.8,71c-2-2-4.7-3.2-7.6-3.2c-0.6,0-1.1,0.1-1.6,0.1c-2.8-10.8-12.6-18.5-23.8-18.5H78.2
	c-11.2,0-21,7.7-23.8,18.5c-0.5-0.1-1.1-0.1-1.6-0.1c-5.9,0-10.7,4.8-10.7,10.7v55.1c0,5.9,4.8,10.7,10.7,10.7
	c3.1,0,6.1-1.4,8.1-3.7c3.6,6,14.4,10,20.5,10h37.4c6.1,0,16.9-4,20.5-10c2,2.3,4.9,3.7,8.1,3.7c5.9,0,10.7-4.8,10.7-10.7V78.5
	C158,75.7,156.8,73,154.8,71z M78.2,52.1h43.7c10.1,0,18.8,6.9,21.3,16.6c-3.9,1.6-6.6,5.4-6.6,9.9v52.8c-0.5-0.1-1-0.2-1.6-0.2H65
	c-0.5,0-1.1,0.1-1.6,0.2V78.5c0-2.8-1.1-5.5-3.1-7.6c-1-1-2.2-1.8-3.4-2.3C59.3,59,68.1,52.1,78.2,52.1z M52.7,141.4
	c-4.3,0-7.8-3.5-7.8-7.8V78.5c0-4.3,3.5-7.8,7.8-7.8c2.1,0,4,0.8,5.5,2.3c1.5,1.5,2.3,3.5,2.3,5.5v54.9c-0.6,0.9-1,1.9-1,3.1
	c0,0.2,0,0.5,0,0.7C58.3,139.8,55.6,141.4,52.7,141.4z M118.7,147.8H81.3c-6.9,0-18.9-5.6-18.9-11.3c0-1.4,1.2-2.6,2.6-2.6h70
	c1.4,0,2.6,1.2,2.6,2.6C137.6,142.2,125.7,147.8,118.7,147.8z M155.1,133.6c0,4.3-3.5,7.8-7.8,7.8c-2.9,0-5.5-1.6-6.9-4.2
	c0-0.2,0-0.5,0-0.7c0-1.1-0.4-2.2-1-3.1V78.5c0-4.3,3.5-7.8,7.8-7.8c2.1,0,4,0.8,5.5,2.3c1.5,1.5,2.3,3.5,2.3,5.5V133.6z"/>
</svg>
